<?xml version="1.0" encoding="UTF-8" standalone="no"?>
<!-- Created with Inkscape (http://www.inkscape.org/) -->

<svg
   version="1.1"
   id="svg1"
   width="254"
   height="181"
   viewBox="0 0 254 181"
   xmlns="http://www.w3.org/2000/svg"
   xmlns:svg="http://www.w3.org/2000/svg">
  <defs
     id="defs1" />
  <g
     id="layer1">
    <path
       style="font-weight:bold;font-size:200px;font-family:Calibri;-inkscape-font-specification:'Calibri Bold';fill:#010706"
       d="m 220.13309,141.28404 c 0,2.86459 -0.19531,5.07813 -0.58594,6.64063 -0.32552,1.49739 -0.78125,2.57161 -1.36719,3.22265 -0.58593,0.58594 -1.46484,1.13933 -2.63672,1.66016 -1.10677,0.45573 -2.4414,0.84635 -4.0039,1.17187 -1.4974,0.39063 -3.15756,0.6836 -4.98047,0.87891 -1.75781,0.19531 -3.54818,0.29297 -5.3711,0.29297 -4.88281,0 -9.11458,-0.61849 -12.69531,-1.85547 -3.58073,-1.23698 -5.45834,-2.85384 -7.80209,-5.3929 -2.34375,-2.60417 -3.15364,-6.13054 -4.26041,-10.03679 -1.10677,-3.90625 -1.66015,-8.52864 -1.66015,-13.86718 V 79.36998 h -12.36659 c -1.23698,0 -2.18099,-0.748698 -2.83203,-2.246094 -0.65105,-1.5625 -0.97657,-4.134115 -0.97657,-7.714844 0,-1.888021 -0.12664,-6.167395 0.004,-7.469478 0.19531,-1.302083 0.45572,-2.311198 0.78125,-3.027344 0.32552,-0.78125 0.71614,-1.334635 1.17187,-1.660156 0.52083,-0.325521 1.10677,-0.488281 1.75781,-0.488281 h 12.26894 v -14.06495 c 0,-0.651041 0.16276,-1.236979 0.48828,-1.757812 0.39062,-0.520833 1.04166,-0.944011 1.95312,-1.269532 0.97657,-0.390625 0.2461,-0.651041 1.8086,-0.78125 1.6276,-0.195312 3.61328,-0.292968 5.95703,-0.292968 2.40885,0 4.39453,0.09766 5.95703,0.292968 1.6276,0.130209 2.89713,0.390625 3.80859,0.78125 0.91146,0.325521 1.5625,0.748699 1.95313,1.269532 0.39062,0.520833 0.58593,1.106771 0.58593,1.757812 v 14.06495 h 12.42625 c 0.65104,0 1.20443,0.16276 1.66015,0.488281 0.52084,0.325521 0.94401,0.878906 1.26953,1.660156 0.32553,0.716146 0.5534,1.725261 0.6836,3.027344 0.19532,1.302083 0.48471,5.581457 0.48471,7.469478 0,3.580729 -0.32552,6.152344 -0.97657,7.714844 -0.65104,1.497396 -1.59505,2.246094 -2.83203,2.246094 h -12.5239 v 40.91797 c 0,4.7526 0.7487,8.33333 2.2461,10.74219 1.49739,2.34375 4.16666,3.51562 8.00781,3.51562 1.30209,0 2.47396,-0.0977 3.51563,-0.29297 1.04167,-0.26041 1.95312,-0.52083 2.73437,-0.78125 0.84635,-0.32552 1.52995,-0.58594 2.05078,-0.78125 0.58594,-0.26041 1.10677,-0.39062 1.5625,-0.39062 0.39063,0 0.7487,0.13021 1.07422,0.39062 0.39063,0.19531 0.6836,0.65104 0.87891,1.36719 0.19531,0.65104 0.35807,1.5625 0.48828,2.73437 0.19531,1.17188 0.29297,2.66928 0.29297,4.49219 z"
       id="text5"
       aria-label="t" />
  </g>
  <path
     id="path3"
     style="display:inline;fill:#ffe93b;stroke-width:1.26152"
     d="m 125.14385,126.90529 c -18.59851,19.76287 -13.90933,18.34323 -45.762495,26.97658 -25.253208,-5.59501 -61.484956,-31.56435 -61.484958,-70.500942 0,-38.936597 27.527753,-70.500949 61.484958,-70.500946 23.753495,2e-6 30.172385,7.775517 46.356025,23.674149 -2.9482,3.371015 -40.577211,37.215515 -49.791936,51.544957 17.548536,13.668862 43.951496,34.840672 49.198406,38.806202 z" />
  <circle
     style="fill:#ffffff;fill-opacity:1;stroke-width:1.13817"
     id="path5"
     cx="186.12019"
     cy="49.720207"
     r="2.5" />
  <circle
     style="fill:#ffffff;fill-opacity:1;stroke-width:1.13817"
     id="path5-6"
     cx="185.98462"
     cy="86.922295"
     r="2.5" />
  <circle
     style="fill:#ffffff;fill-opacity:1;stroke-width:1.13817"
     id="path5-9"
     cx="166.89246"
     cy="68.313469"
     r="2.5" />
  <circle
     style="fill:#ffffff;fill-opacity:1;stroke-width:1.13817"
     id="path5-9-3"
     cx="205.08942"
     cy="67.5"
     r="2.5" />
  <g
     id="g1">
    <path
       style="fill:#000000"
       d="m 143.81596,143.20221 c 0.72217,0.48968 3.68726,0.3578 4.74783,0.22477 0.1825,-9.89495 0.22653,-20.55569 0.1063,-31.59792 0.0834,-9.69094 -0.0749,-18.834297 -0.0973,-28.485954 -10.49795,-0.493132 -19.28891,0.988945 -30.09772,0.594033 0.28327,5.796016 -0.11752,1.160144 0.25647,6.017441 5.67678,-0.553036 10.07891,-0.645025 16.17156,-0.910679 2.77753,-0.144593 7.38594,-0.111126 8.87013,-0.190777 0.35145,3.879354 0.16251,10.506957 0.1239,18.031596 0.0494,13.61293 -0.2145,24.7587 0.0148,36.70094 z M 74.936402,54.658143 c 5.349877,3.146995 6.563353,-4.268066 5.983607,-7.564171 -1.457513,-14.854206 -15.425818,3.987268 -5.983607,7.564171 z m 27.217028,89.521317 c -11.6631,5.77435 -18.825728,4.8525 -33.143156,5.08115 C 55.128158,145.15643 45.671314,138.93072 37.290437,128.15545 30.536402,119.34122 23.933874,110.50977 22.546604,99.569254 21.72173,87.494346 21.187902,76.12115 23.769305,63.89845 29.615947,50.015892 34.648326,39.613226 43.692862,30.915165 c 8.548642,-7.41149 18.060561,-11.892241 27.262257,-13.521937 10.286325,-1.765274 18.490015,-0.252369 28.563108,2.933556 11.808283,7.52178 16.601633,9.39752 21.913753,16.312527 -12.09788,9.463679 -22.266655,20.991729 -33.185635,31.673108 -7.714583,7.8416 -8.899096,12.834062 -16.808845,20.053159 8.371088,7.517365 16.710126,12.424512 24.618127,18.483622 10.159773,9.20867 16.915933,13.39002 25.534153,22.17174 -9.91077,9.50381 -6.13613,7.28629 -19.43635,15.15852 z m -31.187966,8.82936 c 15.897038,0.95443 17.761991,0.34577 30.683206,-4.20207 6.11612,-2.90207 18.67967,-11.78616 23.68271,-17.30549 1.3233,-1.45987 0.61069,-3.21242 0.74885,-3.99254 -1.25809,-2.32889 -1.30648,-1.55345 -2.89116,-3.31635 -8.79672,-6.43401 -13.55587,-11.47726 -21.74864,-18.63969 C 92.965848,98.468695 88.164996,96.20369 78.407394,88 85.489705,78.481123 93.451216,68.559701 101.85587,59.648224 c 7.11768,-6.856715 15.09695,-12.398315 21.54574,-18.534737 1.63822,-1.672631 2.82901,-1.368358 3.3611,-3.627593 -0.0486,-2.077804 -1.87175,-3.466592 -2.60118,-4.356775 -4.06851,-4.965165 -10.64985,-9.32427 -18.94773,-14.760676 -8.174131,-3.845308 -16.054977,-6.160246 -28.355718,-6.174582 -6.253709,0.655013 -15.832281,2.780035 -23.789053,7.476692 -14.944583,7.990272 -24.622123,21.106353 -31.055278,37.593194 -3.214048,12.00948 -4.272098,22.960561 -4.332769,35.288878 1.835149,14.060385 6.382859,24.513685 12.822161,33.283655 8.494294,12.78679 23.908567,25.80219 40.462321,27.17254 z M 0.24464473,90.5 c 0.0215636,18.61083 -0.038535,37.22191 0.0797205,55.83252 0.14898523,-37.22148 0.14898522,-74.443559 0,-111.66504 C 0.20611003,53.278097 0.26620823,71.889165 0.24464473,90.5 Z"
       id="path2" />
  </g>
</svg>
